<svg xmlns="http://www.w3.org/2000/svg" viewBox="0 0 373 243.5"><defs><style>.cls-1,.cls-2{fill:none;stroke-width:16px;}.cls-1,.cls-2,.cls-3{stroke:#000;stroke-miterlimit:10;}.cls-2{stroke-linecap:round;}</style></defs><g id="Calque_2" data-name="Calque 2"><g id="Calque_1-2" data-name="Calque 1"><rect class="cls-1" x="8" y="8" width="357" height="227" rx="14.98"/><line class="cls-2" x1="78" y1="180.5" x2="67" y2="235.5"/><line class="cls-2" x1="294" y1="180.5" x2="305" y2="235.5"/><line class="cls-1" x1="78" y1="180.5" x2="294" y2="180.5"/><path class="cls-3" d="M263,51.5a54,54,0,1,0,54,54A54,54,0,0,0,263,51.5Zm-.5,74A20.5,20.5,0,1,1,283,105,20.5,20.5,0,0,1,262.5,125.5Z"/><path class="cls-3" d="M110,41.5a64,64,0,1,0,64,64A64,64,0,0,0,110,41.5Zm-.5,84A20.5,20.5,0,1,1,130,105,20.5,20.5,0,0,1,109.5,125.5Z"/></g></g></svg>