<svg xmlns="http://www.w3.org/2000/svg" viewBox="0 0 688.09 312.73"><defs><style>.cls-1{fill:#fff;}</style></defs><g id="Calque_2" data-name="Calque 2"><g id="Calque_1-2" data-name="Calque 1"><path class="cls-1" d="M73.82,57.66H.17L10.21,0H221.5l-10,57.66H137.81L104.7,245.52h-64Z"/><path class="cls-1" d="M248.78,0h64L297.14,89.65h89.65L402.41,0h64L423.24,245.52h-64l17.11-98.21H286.72l-17.11,98.21h-64Z"/><path class="cls-1" d="M677.59,245.52H608.4l-45.75-76.26H537.72l-13.39,76.26h-64L503.5,0h85.56c55.8,0,92.25,31.25,92.25,78.12,0,34.59-20.83,64-55,79.23ZM547.4,113.46h36.08c19.72,0,32.36-11.53,32.36-29.76,0-17.49-10-27.9-27.52-27.9H557.81Z"/><path class="cls-1" d="M14.26,276.28H0V265.12H40.9v11.16H26.64v36.37H14.26Z"/><path class="cls-1" d="M68.47,308.68H51.41l-1.73,4H36.36L58,264.26h4l21.6,48.39H70.2ZM60,287.73l-4.18,11h8.28Z"/><path class="cls-1" d="M88.42,265.12h18.65c10.58,0,18.36,6.48,18.36,16.35,0,9.72-8,16.41-18.36,16.41H100.8v14.77H88.42Zm18.72,22a5.31,5.31,0,0,0,5.69-5.61c0-3.39-2.24-5.55-5.69-5.55H100.8v11.16Z"/><path class="cls-1" d="M132.12,265.12h33v11.16H144.5v6.55h14.69V293.2H144.5v8.28H166v11.17H132.12Z"/><path class="cls-1" d="M203.33,264.34h12.38V281.7h17.36V264.34h12.38v47.53H233.07v-19H215.71v19H203.33Z"/><path class="cls-1" d="M278.07,263.48c13.82-.29,26,11,25.7,24.62.29,13.76-11.88,24.85-25.7,24.63-13.9.22-25.85-10.87-25.57-24.63C252.22,274.5,264.17,263.19,278.07,263.48Zm.07,11.38c-7.63,0-13,5.4-13,13.24a13.29,13.29,0,0,0,3.6,9.65,12.72,12.72,0,0,0,9.36,3.6c7.34,0,13-5.32,13-13.25S285.48,274.86,278.14,274.86Z"/><path class="cls-1" d="M310.53,264.34h12.39v28.3c0,5.4,3.53,8.71,8.64,8.71s8.64-3.31,8.64-8.71v-28.3h12.39v27.37c0,12.52-9,21-21,21s-21-8.35-21-21Z"/><path class="cls-1" d="M366.7,295.74c2.8,3.74,5.76,6.12,10.58,6.12,3.24,0,4.9-1.15,4.9-3.46,0-2.09-1.08-2.73-4.83-4.39l-4.89-2.16c-7.85-3.46-12-7.92-12-14.33,0-8.42,6.91-14,16.63-14,7.85,0,13.4,3.74,16.28,9.58l-8.28,6.33c-2.31-3.45-4.47-5-7.85-5-2.59,0-4.25,1-4.25,3,0,1.72,1,2.66,4.1,3.88l5.48,2.31c8.28,3.45,12.17,7.63,12.17,14.33,0,9.21-7.56,14.83-17.43,14.83-8.57,0-15.48-4.1-18.94-10.66Z"/><path class="cls-1" d="M401.76,264.34h33V275.5h-20.6v6.56h14.69v10.37H414.14v8.28H435.6v11.16H401.76Z"/><path class="cls-1" d="M501.67,311.64,491,296.88h-5.12v14.76H473.45V264.12H492.1c10.58,0,18.36,6.48,18.36,16.34A15.48,15.48,0,0,1,503,294l12.53,17.64Zm-15.84-25.56h6.34a5.31,5.31,0,0,0,5.69-5.62c0-3.38-2.23-5.54-5.69-5.54h-6.34Z"/><path class="cls-1" d="M547.9,307.68H530.83l-1.73,4H515.78l21.6-48.39h4L563,311.64H549.63Zm-8.5-20.95-4.18,11h8.28Z"/><path class="cls-1" d="M567.84,264.12H584.4c14.55-.15,26.14,9.36,25.92,23.61.22,14-11.37,24.13-25.92,23.91H567.84Zm16.49,36.36c7.77,0,13.32-4.9,13.32-12.75,0-8.06-5.47-12.38-13.32-12.38h-4.11v25.13Z"/><path class="cls-1" d="M617.37,264.12h12.39v47.52H617.37Z"/><path class="cls-1" d="M662.37,263.25c13.83-.29,26,11,25.71,24.63.29,13.75-11.88,24.84-25.71,24.62-13.89.22-25.85-10.87-25.56-24.62C636.52,274.27,648.48,263,662.37,263.25Zm.08,11.38c-7.64,0-13,5.4-13,13.25a13.32,13.32,0,0,0,3.6,9.65,12.76,12.76,0,0,0,9.36,3.6c7.34,0,13-5.33,13-13.25S669.79,274.63,662.45,274.63Z"/></g></g></svg>