<svg xmlns="http://www.w3.org/2000/svg" viewBox="0 0 883.51 883.51"><defs><style>.cls-1{font-size:110px;font-family:CeraPro-Black, Cera Pro;font-weight:800;}</style></defs><g id="Calque_2" data-name="Calque 2"><g id="Calque_1-2" data-name="Calque 1"><text class="cls-1" transform="translate(274.63 281.11) rotate(-38.04)">T</text><text class="cls-1" transform="translate(314.8 247.19) rotate(-24.22)">A</text><text class="cls-1" transform="translate(376.54 219.13) rotate(-8.02)">P</text><text class="cls-1" transform="translate(438.26 210.08) rotate(7.04)">E</text><text class="cls-1" transform="translate(497.7 218.66) rotate(17.89)"> </text><text class="cls-1" transform="translate(524.65 224.14) rotate(30.55)">H</text><text class="cls-1" transform="translate(588.88 260.42) rotate(49.66)">O</text><text class="cls-1" transform="translate(640.95 321.31) rotate(68.4)">U</text><text class="cls-1" transform="translate(667.29 388.95) rotate(84.51)">S</text><text class="cls-1" transform="matrix(-0.16, 0.99, -0.99, -0.16, 673.42, 446.02)">E</text><text class="cls-1" transform="matrix(-0.34, 0.94, -0.94, -0.34, 662.87, 505.15)"> </text><text class="cls-1" transform="translate(653.32 532.07) rotate(116.9)"> </text><text class="cls-1" transform="matrix(-0.56, 0.83, -0.83, -0.56, 640.51, 557.63)">.</text><text class="cls-1" transform="translate(624.63 581.38) rotate(131.22)"> </text><text class="cls-1" transform="translate(611.47 599.7) rotate(141.03)">T</text><text class="cls-1" transform="translate(571.84 634.25) rotate(154.85)">A</text><text class="cls-1" transform="matrix(-0.99, 0.16, -0.16, -0.99, 510.54, 663.32)">P</text><text class="cls-1" transform="translate(448.99 673.36) rotate(-173.88)">E</text><text class="cls-1" transform="matrix(-0.96, -0.29, 0.29, -0.96, 389.42, 665.74)"> </text><text class="cls-1" transform="translate(362.38 660.69) rotate(-150.37)">H</text><text class="cls-1" transform="translate(297.58 625.46) rotate(-131.27)">O</text><text class="cls-1" transform="matrix(-0.38, -0.92, 0.92, -0.38, 244.53, 565.38)">U</text><text class="cls-1" transform="matrix(-0.11, -0.99, 0.99, -0.11, 217.11, 498.2)">S</text><text class="cls-1" transform="translate(210.05 441.22) rotate(-81.96)">E</text><text class="cls-1" transform="translate(219.65 381.95) rotate(-71.12)"> </text><text class="cls-1" transform="translate(228.78 354.85) rotate(-64.02)"> </text><text class="cls-1" transform="matrix(0.55, -0.84, 0.84, 0.55, 241.17, 329.09)">.</text></g></g></svg>