<svg xmlns="http://www.w3.org/2000/svg" viewBox="0 0 1156.29 1156.29"><defs><style>.cls-1{fill:#fff;}.cls-2,.cls-3,.cls-7{fill:none;}.cls-2,.cls-3,.cls-4,.cls-6,.cls-7{stroke:#000;stroke-miterlimit:10;}.cls-2,.cls-3{stroke-width:16px;}.cls-3{stroke-linecap:round;}.cls-5{font-size:175.44px;font-family:CeraPro-Black, Cera Pro;font-weight:800;}.cls-6{fill:red;}.cls-6,.cls-7{stroke-width:12px;}</style></defs><g id="Calque_2" data-name="Calque 2"><g id="Calque_1-2" data-name="Calque 1"><rect class="cls-1" x="163.41" y="162.88" width="830" height="830" rx="132.82"/><rect class="cls-2" x="364.86" y="441.93" width="426.58" height="271.24" rx="14.98"/><line class="cls-3" x1="448.5" y1="648.05" x2="435.35" y2="713.77"/><line class="cls-3" x1="706.6" y1="648.05" x2="719.74" y2="713.77"/><line class="cls-2" x1="448.5" y1="648.05" x2="706.6" y2="648.05"/><path class="cls-4" d="M669.55,499.88a64.53,64.53,0,1,0,64.53,64.52A64.52,64.52,0,0,0,669.55,499.88ZM669,588.3a24.5,24.5,0,1,1,24.49-24.49A24.5,24.5,0,0,1,669,588.3Z"/><path class="cls-4" d="M486.74,487.93a76.48,76.48,0,1,0,76.47,76.47A76.48,76.48,0,0,0,486.74,487.93Zm-.6,100.37a24.5,24.5,0,1,1,24.49-24.49A24.5,24.5,0,0,1,486.14,588.3Z"/><text class="cls-5" transform="translate(380.01 381.6) rotate(-34.53)">T</text><text class="cls-5" transform="translate(445.25 331.36) rotate(-16.43)">A</text><text class="cls-5" transform="translate(546.84 300.5) rotate(4.6)">P</text><text class="cls-5" transform="translate(644.28 307.26) rotate(24.13)">E</text><text class="cls-5" transform="matrix(0.78, 0.62, -0.62, 0.78, 729.13, 347.83)"> </text><text class="cls-5" transform="matrix(0.57, 0.82, -0.82, 0.57, 766.28, 368.87)">H</text><text class="cls-5" transform="translate(835.67 461.68) rotate(79.62)">O</text><text class="cls-5" transform="matrix(-0.24, 0.97, -0.97, -0.24, 859.22, 585.12)">U</text><text class="cls-5" transform="translate(830.95 695.32) rotate(124.99)">S</text><text class="cls-5" transform="translate(780.85 769.75) rotate(143.9)">E</text><text class="cls-5" transform="translate(703.44 823.33) rotate(157.98)"> </text><text class="cls-5" transform="matrix(-0.98, 0.22, -0.22, -0.98, 662.34, 840.36)"> </text><text class="cls-5" transform="translate(619 850.5) rotate(176.64)">.</text><text class="cls-5" transform="translate(574.57 853.48) rotate(-174.1)"> </text><text class="cls-5" transform="matrix(-0.94, -0.34, 0.34, -0.94, 531.57, 852.8)">S</text><text class="cls-5" transform="matrix(-0.76, -0.66, 0.66, -0.76, 445.98, 826.62)">H</text><text class="cls-5" transform="matrix(-0.41, -0.91, 0.91, -0.41, 356.4, 753.16)">O</text><text class="cls-5" transform="translate(305.26 638.32) rotate(-91.4)">P</text><text class="cls-5" transform="translate(304.95 543.94) rotate(-77.74)"> </text><text class="cls-5" transform="translate(314.04 500.34) rotate(-68.51)"> </text><text class="cls-5" transform="translate(330.01 458.76) rotate(-59.24)">.</text><path class="cls-6" d="M665.41,671.88l-13.36,43-15.91,48.27a65.82,65.82,0,0,1-37.29,40.18l-11,4.56a65.73,65.73,0,0,1-45.8,1.71s-26.91-14.47-35.06-27.4l-8.26-13.1a65.77,65.77,0,0,1-6.82-55.69l15.26-46.3Z"/><line class="cls-7" x1="584.41" y1="687.88" x2="556.41" y2="761.88"/></g></g></svg>